<svg xmlns="http://www.w3.org/2000/svg" width="612" height="451" viewBox="0 0 612 451" version="1.1"><path d="M 405.916 62.522 C 389.721 66.455, 374.825 77.836, 367.608 91.791 L 365.913 95.069 361.914 90.010 C 346.609 70.649, 318.287 65.679, 296.389 78.512 C 285.659 84.800, 276.439 97.673, 273.458 110.526 C 272.569 114.357, 271.738 117.595, 271.611 117.723 C 271.291 118.042, 244.298 121.015, 173.500 128.527 C 135.902 132.516, 133.600 133.079, 124.500 140.506 C 116.472 147.058, 114.260 152.469, 104.071 190.500 C 103.040 194.350, 98.505 211, 93.994 227.500 C 86.084 256.431, 85.808 257.803, 86.252 266 C 86.817 276.406, 89.139 282.087, 95.718 289.155 C 100.505 294.298, 109.458 299.451, 115.500 300.541 C 117.150 300.839, 126.822 301.627, 136.994 302.291 L 155.488 303.500 158.523 315.616 C 162.135 330.033, 164.585 334.149, 171.500 337.416 C 176.414 339.737, 177.995 339.842, 263.500 343.546 C 311.350 345.619, 350.795 347.582, 351.155 347.908 C 351.516 348.233, 351.164 357.050, 350.373 367.500 C 349.583 377.950, 349.063 387.277, 349.218 388.226 C 349.454 389.672, 350.639 389.245, 356.500 385.604 C 388.725 365.586, 415.092 350, 416.733 350 C 417.819 350, 419.899 348.896, 421.354 347.548 C 425.116 344.062, 424.983 338.319, 420.992 331.832 C 418.904 328.439, 418.369 326.823, 419.242 326.550 C 419.934 326.334, 431.300 325.661, 444.500 325.054 C 457.700 324.447, 470.864 323.732, 473.752 323.466 C 492.654 321.724, 507.167 305.686, 507.207 286.496 C 507.220 280.660, 506.287 276.647, 501.611 262.426 C 498.525 253.039, 496 245.097, 496 244.775 C 496 244.454, 498.497 242.782, 501.549 241.059 C 515.185 233.363, 523.671 220.419, 526.043 203.697 C 530.094 175.135, 505.847 147, 477.183 147 C 472.435 147, 471.873 146.790, 472.508 145.250 C 477.075 134.172, 477.422 132.403, 477.461 120 C 477.508 105.092, 475.503 97.924, 468.291 87.217 C 454.627 66.931, 429.208 56.867, 405.916 62.522 M 408 76.370 C 389.377 81.822, 376.262 97.759, 375.192 116.239 C 374.074 135.563, 382.732 151.022, 399.415 159.490 C 406.246 162.957, 407.816 163.344, 416.825 163.777 C 425.195 164.180, 427.747 163.915, 433.325 162.058 C 452.305 155.742, 464 139.517, 464 119.500 C 464 100.750, 453.079 84.988, 435.018 77.670 C 429.147 75.291, 414.149 74.570, 408 76.370 M 329.004 112.700 C 324.403 119.190, 320.051 124.994, 319.335 125.599 C 318.618 126.203, 318.324 126.991, 318.682 127.349 C 319.040 127.707, 318.921 127.994, 318.417 127.987 C 317.913 127.980, 315.539 125.023, 313.143 121.415 C 308.376 114.240, 305.653 112.459, 302.500 114.459 C 298.507 116.991, 299.478 120.799, 306.832 131.455 C 310.611 136.930, 314.375 141.834, 315.197 142.352 C 318.464 144.413, 321.472 142.065, 328.500 131.969 C 332.350 126.439, 337.224 119.571, 339.330 116.707 C 345.328 108.554, 346.070 106.775, 344.659 103.931 C 343.850 102.297, 342.456 101.402, 340.412 101.200 C 337.566 100.920, 336.832 101.661, 329.004 112.700 M 466.138 172.161 C 459.171 175.609, 455.096 184.238, 458.604 188.114 C 461.517 191.334, 465.151 190.218, 467.500 185.384 C 468.600 183.120, 470.118 180.532, 470.872 179.634 C 472.844 177.286, 479.106 177.518, 481.811 180.039 C 485.418 183.399, 484.585 186.124, 477.976 192.598 C 471.284 199.153, 468.971 204.446, 470.923 208.731 C 471.802 210.660, 472.644 211.065, 475.257 210.813 C 477.978 210.550, 478.661 209.951, 479.500 207.090 C 480.092 205.071, 483.196 200.967, 487.109 197.030 C 494.157 189.939, 495.542 186.546, 493.865 180.474 C 492.868 176.863, 488.685 172.575, 484.685 171.064 C 479.876 169.247, 470.959 169.774, 466.138 172.161 M 197.324 175.389 C 187.704 178.514, 178.872 186.949, 175.042 196.670 C 172.170 203.959, 171.088 221.292, 172.971 229.866 C 175.700 242.300, 183.111 251.854, 193.880 256.823 C 201.431 260.307, 216.378 261.110, 225.011 258.497 L 230.777 256.751 235.139 259.735 C 244.944 266.444, 250.337 267.663, 254 264 C 258.121 259.879, 256.240 255.428, 248.506 251.003 C 245.478 249.271, 243 247.612, 243 247.316 C 243 247.021, 244.585 243.566, 246.521 239.639 C 252.482 227.553, 253.068 210.275, 247.978 196.670 C 245.175 189.179, 237.702 181.065, 230.262 177.433 C 225.133 174.930, 223.237 174.588, 213 174.326 C 205.291 174.129, 200.123 174.479, 197.324 175.389 M 332.500 175.155 C 329.247 176.934, 328 179.150, 328 183.152 C 328 189.508, 334.079 193.453, 340.058 190.976 C 343.592 189.512, 345 187.282, 345 183.148 C 345 178.797, 344.103 177.105, 340.928 175.463 C 337.595 173.739, 335.245 173.653, 332.500 175.155 M 208 190.069 C 202.131 191.169, 199.317 192.718, 196.514 196.393 C 192.825 201.229, 191 207.956, 191 216.716 C 191 226.722, 192.527 232.088, 196.793 237.072 C 201.073 242.071, 205.258 244.008, 211.718 243.978 L 216.500 243.956 211.300 240.925 C 205.382 237.474, 204.114 235.002, 206.440 231.451 C 208.883 227.723, 214.062 228.137, 221.361 232.642 C 227.900 236.678, 227.860 236.692, 230.674 229.500 C 232.393 225.108, 232.296 209.091, 230.521 204.060 C 226.791 193.487, 218.209 188.156, 208 190.069 M 264.025 197.975 C 261.039 200.961, 260.826 203.030, 261.176 225.613 C 261.488 245.746, 261.590 246.660, 264 250.930 C 267.738 257.553, 273.417 260.251, 282.692 259.809 C 288.886 259.514, 290.520 259.018, 294.471 256.234 C 299.635 252.593, 300 252.468, 300 254.326 C 300 255.055, 301.042 256.630, 302.314 257.826 C 305.386 260.711, 311.014 260.746, 313.595 257.897 C 315.352 255.957, 315.523 253.705, 315.796 228.866 L 316.092 201.938 313.123 198.969 C 309.422 195.268, 304.908 195.001, 301.620 198.289 C 299.458 200.451, 299.294 201.592, 298.669 218.848 C 298.287 229.390, 297.521 238.027, 296.857 239.267 C 292.878 246.702, 283.154 247.804, 279.969 241.182 C 279.116 239.409, 278.522 232.092, 278.215 219.581 C 277.770 201.405, 277.660 200.569, 275.421 198.331 C 272.448 195.358, 266.818 195.182, 264.025 197.975 M 332.229 196.669 C 331.530 196.951, 330.292 198.468, 329.479 200.041 C 328.285 202.350, 328 207.921, 328 228.996 L 328 255.091 330.455 257.545 C 332.149 259.240, 334.021 260, 336.500 260 C 338.979 260, 340.851 259.240, 342.545 257.545 L 345 255.091 345 227.998 L 345 200.905 342.354 198.452 C 339.838 196.120, 335.495 195.355, 332.229 196.669 M 357.315 198.007 C 353.129 199.694, 351.496 206.503, 354.649 209.128 C 355.780 210.069, 360.379 210.657, 369.307 211 L 382.318 211.500 368.040 228 C 350.563 248.196, 350.613 248.123, 351.393 252.283 C 352.555 258.477, 354.817 259, 380.470 259 C 407.118 259, 408.950 258.512, 408.985 251.405 C 409.014 245.515, 406.609 244.562, 390.291 244 L 375.785 243.500 390.382 226.715 C 398.411 217.484, 405.274 208.758, 405.633 207.325 C 406.685 203.134, 404.886 199.647, 400.979 198.306 C 396.875 196.898, 360.683 196.650, 357.315 198.007 M 472.223 215.557 C 469.035 217.789, 469.236 222.454, 472.615 224.667 C 474.957 226.202, 475.506 226.227, 477.865 224.909 C 481.489 222.885, 482.016 217.825, 478.834 215.596 C 475.994 213.607, 475.014 213.601, 472.223 215.557" stroke="none" fill="#4f3cdc" fill-rule="evenodd"/><path d="M -0 225.502 L -0 451.003 306.250 450.752 L 612.500 450.500 612.752 225.250 L 613.004 -0 306.502 -0 L 0 0 -0 225.502 M 0.491 226 C 0.491 350.025, 0.608 400.762, 0.750 338.750 C 0.892 276.737, 0.892 175.262, 0.750 113.250 C 0.608 51.237, 0.491 101.975, 0.491 226 M 405.916 62.522 C 389.721 66.455, 374.825 77.836, 367.608 91.791 L 365.913 95.069 361.914 90.010 C 346.609 70.649, 318.287 65.679, 296.389 78.512 C 285.659 84.800, 276.439 97.673, 273.458 110.526 C 272.569 114.357, 271.738 117.595, 271.611 117.723 C 271.291 118.042, 244.298 121.015, 173.500 128.527 C 135.902 132.516, 133.600 133.079, 124.500 140.506 C 116.472 147.058, 114.260 152.469, 104.071 190.500 C 103.040 194.350, 98.505 211, 93.994 227.500 C 86.084 256.431, 85.808 257.803, 86.252 266 C 86.817 276.406, 89.139 282.087, 95.718 289.155 C 100.505 294.298, 109.458 299.451, 115.500 300.541 C 117.150 300.839, 126.822 301.627, 136.994 302.291 L 155.488 303.500 158.523 315.616 C 162.135 330.033, 164.585 334.149, 171.500 337.416 C 176.414 339.737, 177.995 339.842, 263.500 343.546 C 311.350 345.619, 350.795 347.582, 351.155 347.908 C 351.516 348.233, 351.164 357.050, 350.373 367.500 C 349.583 377.950, 349.063 387.277, 349.218 388.226 C 349.454 389.672, 350.639 389.245, 356.500 385.604 C 388.725 365.586, 415.092 350, 416.733 350 C 417.819 350, 419.899 348.896, 421.354 347.548 C 425.116 344.062, 424.983 338.319, 420.992 331.832 C 418.904 328.439, 418.369 326.823, 419.242 326.550 C 419.934 326.334, 431.300 325.661, 444.500 325.054 C 457.700 324.447, 470.864 323.732, 473.752 323.466 C 492.654 321.724, 507.167 305.686, 507.207 286.496 C 507.220 280.660, 506.287 276.647, 501.611 262.426 C 498.525 253.039, 496 245.097, 496 244.775 C 496 244.454, 498.497 242.782, 501.549 241.059 C 515.185 233.363, 523.671 220.419, 526.043 203.697 C 530.094 175.135, 505.847 147, 477.183 147 C 472.435 147, 471.873 146.790, 472.508 145.250 C 477.075 134.172, 477.422 132.403, 477.461 120 C 477.508 105.092, 475.503 97.924, 468.291 87.217 C 454.627 66.931, 429.208 56.867, 405.916 62.522 M 408 76.370 C 389.377 81.822, 376.262 97.759, 375.192 116.239 C 374.074 135.563, 382.732 151.022, 399.415 159.490 C 406.246 162.957, 407.816 163.344, 416.825 163.777 C 425.195 164.180, 427.747 163.915, 433.325 162.058 C 452.305 155.742, 464 139.517, 464 119.500 C 464 100.750, 453.079 84.988, 435.018 77.670 C 429.147 75.291, 414.149 74.570, 408 76.370 M 329.004 112.700 C 324.403 119.190, 320.051 124.994, 319.335 125.599 C 318.618 126.203, 318.324 126.991, 318.682 127.349 C 319.040 127.707, 318.921 127.994, 318.417 127.987 C 317.913 127.980, 315.539 125.023, 313.143 121.415 C 308.376 114.240, 305.653 112.459, 302.500 114.459 C 298.507 116.991, 299.478 120.799, 306.832 131.455 C 310.611 136.930, 314.375 141.834, 315.197 142.352 C 318.464 144.413, 321.472 142.065, 328.500 131.969 C 332.350 126.439, 337.224 119.571, 339.330 116.707 C 345.328 108.554, 346.070 106.775, 344.659 103.931 C 343.850 102.297, 342.456 101.402, 340.412 101.200 C 337.566 100.920, 336.832 101.661, 329.004 112.700 M 466.138 172.161 C 459.171 175.609, 455.096 184.238, 458.604 188.114 C 461.517 191.334, 465.151 190.218, 467.500 185.384 C 468.600 183.120, 470.118 180.532, 470.872 179.634 C 472.844 177.286, 479.106 177.518, 481.811 180.039 C 485.418 183.399, 484.585 186.124, 477.976 192.598 C 471.284 199.153, 468.971 204.446, 470.923 208.731 C 471.802 210.660, 472.644 211.065, 475.257 210.813 C 477.978 210.550, 478.661 209.951, 479.500 207.090 C 480.092 205.071, 483.196 200.967, 487.109 197.030 C 494.157 189.939, 495.542 186.546, 493.865 180.474 C 492.868 176.863, 488.685 172.575, 484.685 171.064 C 479.876 169.247, 470.959 169.774, 466.138 172.161 M 197.324 175.389 C 187.704 178.514, 178.872 186.949, 175.042 196.670 C 172.170 203.959, 171.088 221.292, 172.971 229.866 C 175.700 242.300, 183.111 251.854, 193.880 256.823 C 201.431 260.307, 216.378 261.110, 225.011 258.497 L 230.777 256.751 235.139 259.735 C 244.944 266.444, 250.337 267.663, 254 264 C 258.121 259.879, 256.240 255.428, 248.506 251.003 C 245.478 249.271, 243 247.612, 243 247.316 C 243 247.021, 244.585 243.566, 246.521 239.639 C 252.482 227.553, 253.068 210.275, 247.978 196.670 C 245.175 189.179, 237.702 181.065, 230.262 177.433 C 225.133 174.930, 223.237 174.588, 213 174.326 C 205.291 174.129, 200.123 174.479, 197.324 175.389 M 332.500 175.155 C 329.247 176.934, 328 179.150, 328 183.152 C 328 189.508, 334.079 193.453, 340.058 190.976 C 343.592 189.512, 345 187.282, 345 183.148 C 345 178.797, 344.103 177.105, 340.928 175.463 C 337.595 173.739, 335.245 173.653, 332.500 175.155 M 208 190.069 C 202.131 191.169, 199.317 192.718, 196.514 196.393 C 192.825 201.229, 191 207.956, 191 216.716 C 191 226.722, 192.527 232.088, 196.793 237.072 C 201.073 242.071, 205.258 244.008, 211.718 243.978 L 216.500 243.956 211.300 240.925 C 205.382 237.474, 204.114 235.002, 206.440 231.451 C 208.883 227.723, 214.062 228.137, 221.361 232.642 C 227.900 236.678, 227.860 236.692, 230.674 229.500 C 232.393 225.108, 232.296 209.091, 230.521 204.060 C 226.791 193.487, 218.209 188.156, 208 190.069 M 264.025 197.975 C 261.039 200.961, 260.826 203.030, 261.176 225.613 C 261.488 245.746, 261.590 246.660, 264 250.930 C 267.738 257.553, 273.417 260.251, 282.692 259.809 C 288.886 259.514, 290.520 259.018, 294.471 256.234 C 299.635 252.593, 300 252.468, 300 254.326 C 300 255.055, 301.042 256.630, 302.314 257.826 C 305.386 260.711, 311.014 260.746, 313.595 257.897 C 315.352 255.957, 315.523 253.705, 315.796 228.866 L 316.092 201.938 313.123 198.969 C 309.422 195.268, 304.908 195.001, 301.620 198.289 C 299.458 200.451, 299.294 201.592, 298.669 218.848 C 298.287 229.390, 297.521 238.027, 296.857 239.267 C 292.878 246.702, 283.154 247.804, 279.969 241.182 C 279.116 239.409, 278.522 232.092, 278.215 219.581 C 277.770 201.405, 277.660 200.569, 275.421 198.331 C 272.448 195.358, 266.818 195.182, 264.025 197.975 M 332.229 196.669 C 331.530 196.951, 330.292 198.468, 329.479 200.041 C 328.285 202.350, 328 207.921, 328 228.996 L 328 255.091 330.455 257.545 C 332.149 259.240, 334.021 260, 336.500 260 C 338.979 260, 340.851 259.240, 342.545 257.545 L 345 255.091 345 227.998 L 345 200.905 342.354 198.452 C 339.838 196.120, 335.495 195.355, 332.229 196.669 M 357.315 198.007 C 353.129 199.694, 351.496 206.503, 354.649 209.128 C 355.780 210.069, 360.379 210.657, 369.307 211 L 382.318 211.500 368.040 228 C 350.563 248.196, 350.613 248.123, 351.393 252.283 C 352.555 258.477, 354.817 259, 380.470 259 C 407.118 259, 408.950 258.512, 408.985 251.405 C 409.014 245.515, 406.609 244.562, 390.291 244 L 375.785 243.500 390.382 226.715 C 398.411 217.484, 405.274 208.758, 405.633 207.325 C 406.685 203.134, 404.886 199.647, 400.979 198.306 C 396.875 196.898, 360.683 196.650, 357.315 198.007 M 472.223 215.557 C 469.035 217.789, 469.236 222.454, 472.615 224.667 C 474.957 226.202, 475.506 226.227, 477.865 224.909 C 481.489 222.885, 482.016 217.825, 478.834 215.596 C 475.994 213.607, 475.014 213.601, 472.223 215.557" stroke="none" fill="#fbf7f9" fill-rule="evenodd"/></svg>